<?xml version="1.0" standalone="no"?>
<!DOCTYPE svg PUBLIC "-//W3C//DTD SVG 20010904//EN"
 "http://www.w3.org/TR/2001/REC-SVG-20010904/DTD/svg10.dtd">
<svg version="1.0" xmlns="http://www.w3.org/2000/svg"
 width="1040.000000pt" height="1040.000000pt" viewBox="0 0 1040.000000 1040.000000"
 preserveAspectRatio="xMidYMid meet">
<metadata>
Created by potrace 1.11, written by Peter Selinger 2001-2013
</metadata>
<g transform="translate(0.000000,1040.000000) scale(0.100000,-0.100000)"
fill="#000000" stroke="none">
<path d="M1140 8390 c-527 -5 -536 -6 -605 -29 -150 -50 -271 -131 -362 -240
-71 -86 -107 -152 -143 -261 l-30 -89 2 -2578 3 -2578 23 -70 c90 -266 286
-458 536 -526 l79 -21 4546 4 4546 5 80 21 c44 12 123 43 174 68 169 83 311
248 378 439 l28 80 3 2515 c2 1786 0 2540 -8 2600 -43 326 -262 574 -585 659
-42 11 -7606 12 -8665 1z m2515 -2064 l800 -463 3 -183 c2 -156 0 -182 -12
-177 -8 3 -298 170 -645 371 -347 201 -633 366 -636 366 -3 0 -5 -468 -5
-1040 0 -572 2 -1040 5 -1040 3 0 186 105 407 234 735 426 859 497 874 503 12
5 14 -19 12 -177 l-3 -182 -800 -464 c-440 -255 -803 -464 -807 -464 -5 0 -8
716 -8 1590 0 875 3 1590 8 1590 4 0 367 -209 807 -464z m2577 -334 c769 -433
1398 -789 1398 -792 0 -5 -2783 -1574 -2812 -1586 -17 -6 -18 74 -18 1586 0
1512 1 1592 18 1586 9 -4 646 -361 1414 -794z"/>
</g>
</svg>
